<svg xmlns="http://www.w3.org/2000/svg" xmlns:xlink="http://www.w3.org/1999/xlink" width="270.362" height="75.778" viewBox="0 0 270.362 75.778">
  <defs>
    <linearGradient id="linear-gradient" y1="0.5" x2="1" y2="0.5" gradientUnits="objectBoundingBox">
      <stop offset="0.364" stop-color="#42beda"/>
      <stop offset="0.648" stop-color="#57bfc4"/>
    </linearGradient>
    <linearGradient id="linear-gradient-2" y1="0.5" x2="1" y2="0.5" gradientUnits="objectBoundingBox">
      <stop offset="0" stop-color="#fe9d39"/>
      <stop offset="0.998" stop-color="#f0684c"/>
    </linearGradient>
  </defs>
  <g id="Logo" transform="translate(-165 -37)">
    <path id="Path_1" data-name="Path 1" d="M2875.709-1099.218c-.307,2.008-.435,3.9-.9,5.714-1.206,4.663-3.7,8.453-8.12,10.661a7.7,7.7,0,0,1-3.618.865,4.285,4.285,0,0,1-3.606-5.689,14.434,14.434,0,0,1,1.941-3.405c1.253-1.8,2.758-3.445,3.893-5.316a16.746,16.746,0,0,0,1.331-15.481c-1.86-4.744-5.253-8.251-9.4-11.393-.226,1.859-.312,3.491-.639,5.073a16.188,16.188,0,0,1-3.507,7.289c1.194,2.745,1.727,4.467,1.727,4.467a36.062,36.062,0,0,1,.734,7.213,22.6,22.6,0,0,1-18.528,21.076,22.752,22.752,0,0,0,23.439,15.412,22.567,22.567,0,0,0,20.361-21.325,36.062,36.062,0,0,0-.734-7.213A16.359,16.359,0,0,0,2875.709-1099.218Z" transform="translate(-2645.68 1175.425)" fill="url(#linear-gradient)"/>
    <path id="Path_2" data-name="Path 2" d="M2836.135-1088.379a22.609,22.609,0,0,1,8.3-14.526c2.569-2.154,5.045-4.425,7.473-6.739a16.042,16.042,0,0,0,1.171-1.256c-2.8-6.434-9.246-18.527-21.126-27.525-.226,1.859-.313,3.491-.64,5.073a16.062,16.062,0,0,1-4.677,8.545c-2.427,2.314-4.9,4.586-7.473,6.74a22.6,22.6,0,0,0-8.3,14.525,25.966,25.966,0,0,0,.506,9.014c2.625,10.463,13.066,17.584,23.808,16.634.62-.056,1.23-.145,1.834-.25-.128-.4-.266-.806-.37-1.222A25.992,25.992,0,0,1,2836.135-1088.379Z" transform="translate(-2645.68 1175.425)" fill="url(#linear-gradient-2)"/>
    <g id="Group_1" data-name="Group 1" transform="translate(-2645.68 1175.425)">
      <path id="Path_3" data-name="Path 3" d="M2913.606-1108.117H2910.2v-11.648l-5.344,8.581H2902.8l-5.43-8.693.056,11.76h-3.405v-19.131h2.42l7.371,11.9,7.372-11.9h2.42Z" fill="#768289"/>
      <path id="Path_4" data-name="Path 4" d="M2942.02-1112.591v4.474h-3.375v-19.131h3.375v10.044l9.173-10.044h4.051l-7.68,8.5,8.524,10.635h-4.221l-6.582-8.1Z" fill="#768289"/>
      <path id="Path_5" data-name="Path 5" d="M2972.472-1127.248c4.558,0,7.568,2.644,7.568,6.611,0,4.164-3.207,6.921-8.046,6.921h-3.348v5.6h-3.376v-19.131Zm-.112,10.438c2.588,0,4.332-1.52,4.332-3.827,0-2.082-1.744-3.488-4.332-3.488h-3.714v7.315Z" fill="#768289"/>
      <path id="Path_6" data-name="Path 6" d="M2985.361-1108.117H2982.1v-19.975h3.264Z" fill="#768289"/>
      <path id="Path_7" data-name="Path 7" d="M3001.539-1108.117H2998.3v-1.125a6.171,6.171,0,0,1-4.136,1.547c-3.489,0-5.824-2.532-5.824-6.386v-7.344h3.236v7.147c0,2.307,1.238,3.629,3.263,3.629a4.655,4.655,0,0,0,3.461-1.97v-8.806h3.235Z" fill="#768289"/>
      <path id="Path_8" data-name="Path 8" d="M3026.778-1115.46v7.343h-3.264v-7.146c0-2.336-1.153-3.63-3.207-3.63a3.706,3.706,0,0,0-3.067,1.829,7.35,7.35,0,0,1,.169,1.6v7.343h-3.235v-7.146c0-2.336-1.182-3.63-3.208-3.63a3.694,3.694,0,0,0-2.9,1.773v9H3004.8v-13.308h3.263v.929a4.726,4.726,0,0,1,3.574-1.35,5.46,5.46,0,0,1,4.332,2.025,6.574,6.574,0,0,1,5.008-2.025C3024.246-1121.846,3026.778-1119.314,3026.778-1115.46Z" fill="#768289"/>
      <path id="Path_9" data-name="Path 9" d="M3043.3-1114.785a6.813,6.813,0,0,1-6.7,6.978,6.74,6.74,0,0,1-4.052-1.238v.928h-3.263v-19.975h3.263v7.6a6.732,6.732,0,0,1,4.052-1.238A6.805,6.805,0,0,1,3043.3-1114.785Zm-3.235,0a4.013,4.013,0,0,0-3.939-4.136,4.145,4.145,0,0,0-3.574,1.829v4.614a4.107,4.107,0,0,0,3.574,1.857A4.02,4.02,0,0,0,3040.061-1114.785Z" fill="#768289"/>
      <path id="Path_10" data-name="Path 10" d="M3045.014-1126.236a1.977,1.977,0,0,1,2.027-2,1.976,1.976,0,0,1,2.025,2,1.965,1.965,0,0,1-2.025,1.942A1.966,1.966,0,0,1,3045.014-1126.236Zm3.658,18.119h-3.235v-13.308h3.235Z" fill="#768289"/>
      <path id="Path_11" data-name="Path 11" d="M3064.946-1115.46v7.343h-3.235v-7.146c0-2.336-1.238-3.63-3.264-3.63a4.66,4.66,0,0,0-3.432,1.914v8.862h-3.264v-13.308h3.264v1.1a6.265,6.265,0,0,1,4.108-1.519C3062.612-1121.846,3064.946-1119.314,3064.946-1115.46Z" fill="#768289"/>
      <path id="Path_12" data-name="Path 12" d="M3081.042-1108.117c0,4.136-2.814,6.64-6.753,6.64-3.742,0-6.555-2.28-6.864-5.515h3.292c.225,1.52,1.547,2.56,3.572,2.56a3.37,3.37,0,0,0,3.517-3.685v-1.66a6.967,6.967,0,0,1-4.107,1.238,6.7,6.7,0,0,1-6.668-6.584,6.593,6.593,0,0,1,6.668-6.808,6.967,6.967,0,0,1,4.107,1.238v-.732h3.236Zm-3.236-5.12v-4a4.218,4.218,0,0,0-3.629-1.912,3.827,3.827,0,0,0-3.911,4.022,3.911,3.911,0,0,0,3.911,3.77A4.189,4.189,0,0,0,3077.806-1113.237Z" fill="#768289"/>
      <path id="Path_13" data-name="Path 13" d="M2919.29-1081.666a8.451,8.451,0,0,1-5.656,2.082c-4.247,0-7.061-2.392-7.061-5.909a5.7,5.7,0,0,1,3.4-5.148,5.417,5.417,0,0,1-1.407-3.517c0-3.178,2.589-5.374,5.965-5.374,3.32,0,5.486,2.2,5.88,5.515h-3.263a2.644,2.644,0,0,0-2.645-2.616,2.437,2.437,0,0,0-2.56,2.5c0,1.632,1.322,2.842,3.995,5.29l3.179,2.982,2.532-3.91h3.4l-3.6,5.57-.225.337,4.164,3.883h-4.277Zm-2.138-2-4.08-3.8-1.125-1.069a3.4,3.4,0,0,0-2.223,3.01c0,1.689,1.688,3.067,3.91,3.067A6.184,6.184,0,0,0,2917.152-1083.663Z" fill="#768289"/>
      <path id="Path_14" data-name="Path 14" d="M2951.012-1079.978h-3.349v-7.821h-9.537v7.821h-3.376v-19.131h3.376v8.187h9.537v-8.187h3.349Z" fill="#768289"/>
      <path id="Path_15" data-name="Path 15" d="M2966.927-1085.352h-10.213a3.67,3.67,0,0,0,3.883,2.926,2.9,2.9,0,0,0,2.7-1.237h3.46c-.759,2.447-3.207,3.995-6.245,3.995a6.738,6.738,0,0,1-7.062-6.95,6.744,6.744,0,0,1,7.062-6.977,6.427,6.427,0,0,1,6.5,6.752A8.939,8.939,0,0,1,2966.927-1085.352Zm-10.241-2.419h7.034a3.215,3.215,0,0,0-3.376-3.067A3.592,3.592,0,0,0,2956.686-1087.771Z" fill="#768289"/>
      <path id="Path_16" data-name="Path 16" d="M2983.259-1079.978h-3.236v-.928a6.885,6.885,0,0,1-4.079,1.238,6.806,6.806,0,0,1-6.7-6.95,6.812,6.812,0,0,1,6.7-6.977,6.878,6.878,0,0,1,4.079,1.238v-.929h3.236Zm-3.236-4.389v-4.53a4.112,4.112,0,0,0-3.6-1.885,4.038,4.038,0,0,0-3.939,4.164,4.031,4.031,0,0,0,3.939,4.136A4.112,4.112,0,0,0,2980.023-1084.367Z" fill="#768289"/>
      <path id="Path_17" data-name="Path 17" d="M2996.91-1080.119a9.735,9.735,0,0,1-3.321.563c-3.179,0-5.149-2.11-5.149-5.542v-5.459H2985.4v-2.729h3.037v-4.867h3.236v4.867h4.924v2.729h-4.924v5.459a2.249,2.249,0,0,0,2.532,2.532,8.716,8.716,0,0,0,2.251-.338Z" fill="#768289"/>
      <path id="Path_18" data-name="Path 18" d="M2998.965-1098.1a1.976,1.976,0,0,1,2.025-2,1.977,1.977,0,0,1,2.026,2,1.966,1.966,0,0,1-2.026,1.942A1.965,1.965,0,0,1,2998.965-1098.1Zm3.657,18.119h-3.235v-13.308h3.235Z" fill="#768289"/>
      <path id="Path_19" data-name="Path 19" d="M3018.52-1087.321v7.343h-3.235v-7.146c0-2.336-1.238-3.63-3.263-3.63a4.659,4.659,0,0,0-3.433,1.914v8.862h-3.263v-13.308h3.263v1.1a6.262,6.262,0,0,1,4.107-1.519C3016.185-1093.707,3018.52-1091.175,3018.52-1087.321Z" fill="#768289"/>
      <path id="Path_20" data-name="Path 20" d="M3034.507-1079.978c0,4.136-2.813,6.64-6.752,6.64-3.742,0-6.555-2.28-6.864-5.515h3.291c.225,1.52,1.547,2.56,3.573,2.56a3.37,3.37,0,0,0,3.517-3.685v-1.66a6.97,6.97,0,0,1-4.108,1.238,6.7,6.7,0,0,1-6.668-6.584,6.593,6.593,0,0,1,6.668-6.808,6.969,6.969,0,0,1,4.108,1.238v-.732h3.235Zm-3.235-5.12v-4a4.221,4.221,0,0,0-3.63-1.912,3.827,3.827,0,0,0-3.91,4.022,3.91,3.91,0,0,0,3.91,3.77A4.192,4.192,0,0,0,3031.272-1085.1Z" fill="#768289"/>
      <path id="Path_21" data-name="Path 21" d="M3036.846-1081.441a1.934,1.934,0,0,1,2-1.913,1.96,1.96,0,0,1,2.027,1.913,1.965,1.965,0,0,1-2.027,1.941A1.939,1.939,0,0,1,3036.846-1081.441Z" fill="#768289"/>
      <path id="Path_22" data-name="Path 22" d="M2931.9-1114.56a5.569,5.569,0,0,1-5.5,3.6,6.394,6.394,0,0,1-6.527-6.724,6.393,6.393,0,0,1,6.527-6.723,5.574,5.574,0,0,1,5.544,3.728h3.571a9.122,9.122,0,0,0-9.115-6.964,9.784,9.784,0,0,0-9.959,9.959,9.784,9.784,0,0,0,9.959,9.96,9.111,9.111,0,0,0,9.075-6.837Z" fill="#768289"/>
    </g>
  </g>
</svg>
